<svg xmlns="http://www.w3.org/2000/svg" width="24" height="24" viewBox="0 0 24 24">
    <g fill="none" fill-rule="evenodd">
        <circle cx="12" cy="12" r="10" fill="#FFF"/>
        <path fill="#43619C" d="M12 24c6.627 0 12-5.371 12-12 0-6.624-5.373-12-12-12S0 5.376 0 12c0 6.629 5.373 12 12 12zm.61-19c-.474 0-.93.063-1.46.285-1.082.468-1.632 1.564-1.632 3.264v1.665H8v2.776h1.518V21h3.092v-8.01h2.105L15 10.214h-2.39v-1.26c0-.381.038-.666.133-.83.132-.242.398-.362.815-.362h1.404V5H12.61z"/>
    </g>
</svg>
