<?xml version="1.0" encoding="UTF-8"?>
<svg width="268px" height="268px" viewBox="0 0 268 268" version="1.1" xmlns="http://www.w3.org/2000/svg" xmlns:xlink="http://www.w3.org/1999/xlink">
    <!-- Generator: Sketch 48.2 (47327) - http://www.bohemiancoding.com/sketch -->
    <title>fb_logo_white</title>
    <desc>Created with Sketch.</desc>
    <defs></defs>
    <g id="Page-1" stroke="none" stroke-width="1" fill="none" fill-rule="evenodd">
        <g id="fb_logo_white" fill="#FFFFFF" fill-rule="nonzero">
            <g id="FB-fLogo_2016">
                <g id="White">
                    <path d="M252.72,0.55 L15.28,0.55 C7.1471314,0.555515681 0.555515681,7.1471314 0.55,15.28 L0.55,252.72 C0.555515681,260.852869 7.1471314,267.444484 15.28,267.45 L143.11,267.45 L143.11,164.09 L108.33,164.09 L108.33,123.81 L143.11,123.81 L143.11,94.11 C143.11,59.63 164.11,40.86 194.92,40.86 C205.301219,40.8238496 215.676667,41.3546398 226,42.45 L226,78.45 L204.67,78.45 C187.94,78.45 184.67,86.39 184.67,98.06 L184.67,123.77 L224.55,123.77 L219.36,164.05 L184.71,164.05 L184.71,267.45 L252.71,267.45 C260.842869,267.444484 267.434484,260.852869 267.44,252.72 L267.44,15.28 C267.434493,7.1510313 260.848963,0.561027945 252.72,0.55 Z" id="White-2"></path>
                </g>
            </g>
        </g>
    </g>
</svg>