<?xml version="1.0" encoding="UTF-8"?>
<svg width="44px" height="44px" viewBox="0 0 44 44" version="1.1" xmlns="http://www.w3.org/2000/svg" xmlns:xlink="http://www.w3.org/1999/xlink">
    <!-- Generator: Sketch 48.2 (47327) - http://www.bohemiancoding.com/sketch -->
    <title>google-g</title>
    <desc>Created with Sketch.</desc>
    <defs></defs>
    <g id="Page-1" stroke="none" stroke-width="1" fill="none" fill-rule="evenodd">
        <g id="google-g">
            <path d="M43.12,22.5 C43.12,20.94 42.98,19.44 42.72,18 L22,18 L22,26.51 L33.84,26.51 C33.33,29.26 31.78,31.59 29.45,33.15 L29.45,38.67 L36.56,38.67 C40.72,34.84 43.12,29.2 43.12,22.5 Z" id="Shape" fill="#4285F4" fill-rule="nonzero"></path>
            <path d="M22,44 C27.94,44 32.92,42.03 36.56,38.67 L29.45,33.15 C27.48,34.47 24.96,35.25 22,35.25 C16.27,35.25 11.42,31.38 9.69,26.18 L2.34,26.18 L2.34,31.88 C5.96,39.07 13.4,44 22,44 Z" id="Shape" fill="#34A853" fill-rule="nonzero"></path>
            <path d="M9.69,26.18 C9.25,24.86 9,23.45 9,22 C9,20.55 9.25,19.14 9.69,17.82 L9.69,12.12 L2.34,12.12 C0.799998104,15.1857166 -0.00135897715,18.5692243 -8.8817842e-16,22 C-8.8817842e-16,25.55 0.85,28.91 2.34,31.88 L9.69,26.18 Z" id="Shape" fill="#FBBC05" fill-rule="nonzero"></path>
            <path d="M22,8.75 C25.23,8.75 28.13,9.86 30.41,12.04 L36.72,5.73 C32.91,2.18 27.93,0 22,0 C13.4,0 5.96,4.93 2.34,12.12 L9.69,17.82 C11.42,12.62 16.27,8.75 22,8.75 Z" id="Shape" fill="#EA4335" fill-rule="nonzero"></path>
            <polygon id="Shape" points="0 0 44 0 44 44 0 44"></polygon>
        </g>
    </g>
</svg>