<svg xmlns="http://www.w3.org/2000/svg" width="25" height="32" viewBox="0 0 25 32">
    <g fill="none" fill-rule="evenodd">
        <path d="M-3 8h22.86v24H-3z"/>
        <path fill="#696969" d="M12.23 10.01L2.707 10C1.658 10 .81 10.9.81 12v18c0 1.1.848 2 1.896 2h9.525c1.048 0 1.905-.9 1.905-2V12c0-1.1-.857-1.99-1.905-1.99zm0 17.99H2.707V14h9.525v14z"/>
        <g fill="#00ACED">
            <path d="M17.5 0C13.375 0 10 3.375 10 7.5s3.375 7.5 7.5 7.5S25 11.625 25 7.5 21.625 0 17.5 0zm.75 11.25h-1.5v-4.5h1.5v4.5zm0-6h-1.5v-1.5h1.5v1.5z"/>
        </g>
    </g>
</svg>
