<svg xmlns="http://www.w3.org/2000/svg" width="24" height="24" viewBox="0 0 24 24">
    <path fill="#CFBEA7" fill-rule="evenodd" d="M6.24 4.862c-.828.212-1.44.97-1.44 1.858v2.4h3.98A4.312 4.312 0 0 1 12 7.68c1.28 0 2.429.557 3.22 1.44h3.98v-2.4c0-1.06-.858-1.92-1.92-1.92H6.72a1.67 1.67 0 0 0-.156.01c.132-.015.156-.01.156-.01v2.88h-.48V4.862zm.179-.038c.048-.005.096-.014.145-.014l-.145.014zm9.452 5.256H19.2v6.24c0 1.594-1.29 2.88-2.88 2.88H7.68A2.878 2.878 0 0 1 4.8 16.32v-6.24h3.329a4.32 4.32 0 1 0 7.742 0zM12 24c6.627 0 12-5.371 12-12 0-6.624-5.373-12-12-12S0 5.376 0 12c0 6.629 5.373 12 12 12zM8.16 7.68h.48V4.8h-.48v2.88zm-.96 0h.48V4.8H7.2v2.88zm8.64-1.92a.48.48 0 0 0-.48.48v1.44c0 .269.213.48.48.48h1.44c.265 0 .48-.211.48-.48V6.24a.48.48 0 0 0-.48-.48h-1.44zM12 15.36a3.359 3.359 0 1 0 0-6.72 3.359 3.359 0 1 0 0 6.72z"/>
</svg>
