<svg xmlns="http://www.w3.org/2000/svg" width="29" height="29" viewBox="0 0 29 29">
    <g fill="#25A762" fill-rule="evenodd">
        <path d="M11.967 14.9l-4.255-3.24L6 13.57l5.251 6.314.926 1.116.965-1.079L23 8.901 21.268 7z"/>
        <path d="M14.5 27.188c-6.994 0-12.688-5.69-12.688-12.688 0-6.994 5.694-12.688 12.688-12.688 6.994 0 12.688 5.694 12.688 12.688 0 6.998-5.694 12.688-12.688 12.688M14.5 0C6.492 0 0 6.492 0 14.5 0 22.51 6.492 29 14.5 29S29 22.51 29 14.5C29 6.492 22.508 0 14.5 0"/>
    </g>
</svg>
