<svg xmlns="http://www.w3.org/2000/svg" width="24" height="24" viewBox="0 0 24 24">
    <path fill="#24A9E6" fill-rule="evenodd" d="M12 24c6.627 0 12-5.371 12-12 0-6.624-5.373-12-12-12S0 5.376 0 12c0 6.629 5.373 12 12 12zM8.166 8.728C10.52 9.876 12.51 9.81 12.51 9.81s-.754-2.536 1.577-3.66c2.332-1.125 3.936.77 3.936.77s.406-.11.71-.213c.302-.109.741-.302.741-.302l-.718 1.237 1.106-.113s-.137.193-.58.585c-.442.392-.624.59-.624.59s.158 3.052-1.509 5.404c-1.667 2.347-3.82 3.76-6.949 4.052-3.128.298-5.166-.925-5.166-.925s1.369-.076 2.24-.397C8.146 16.517 9.4 15.67 9.4 15.67s-1.783-.529-2.423-1.124c-.64-.595-.8-.95-.8-.95l1.76-.018s-1.851-.95-2.377-1.7c-.526-.747-.594-1.474-.594-1.474l1.353.524S5.194 9.456 5.034 8.308c-.16-1.143.206-1.762.206-1.762s.571 1.035 2.926 2.182z"/>
</svg>
